<svg id="Layer_1" data-name="Layer 1" xmlns="http://www.w3.org/2000/svg" xmlns:xlink="http://www.w3.org/1999/xlink" viewBox="0 0 512 512"><defs><style>.cls-1{fill:url(#linear-gradient);}.cls-2{stroke:#fff;fill:url(#linear-gradient-2);}</style><linearGradient id="linear-gradient" x1="51.55" y1="316.3" x2="498.95" y2="-38.84" gradientTransform="matrix(1, 0, 0, -1, 0, 410)" gradientUnits="userSpaceOnUse"><stop offset="0" stop-color="#9013fe"/><stop offset="1" stop-color="#6610f2"/></linearGradient><linearGradient id="linear-gradient-2" x1="189.15" y1="245.68" x2="289.15" y2="76.55" gradientTransform="matrix(1, 0, 0, -1, 0, 410)" gradientUnits="userSpaceOnUse"><stop offset="0" stop-color="#fff"/><stop offset="1" stop-color="#f1e5fc"/></linearGradient></defs><path class="cls-1" d="M56.48,105.32C55.51,77.58,77.13,52,106.34,52H405.7c29.21,0,50.82,25.58,49.86,53.32-.93,26.65.27,61.17,9,89.31S487.93,240.71,512,243v26c-24.07,2.29-38.77,20.14-47.48,48.37s-9.89,62.66-9,89.31c1,27.74-20.65,53.32-49.86,53.32H106.34c-29.21,0-50.82-25.58-49.86-53.32.93-26.65-.28-61.16-9-89.31S24.07,271.29,0,269V243c24.07-2.29,38.8-20.14,47.52-48.37S57.41,132,56.48,105.32Z"/><path class="cls-2" d="M267.1,364.46c47.3,0,75.8-23.16,75.8-61.36,0-28.87-20.33-49.77-50.53-53.08v-1.21C314.55,245.21,332,224.6,332,201.6c0-32.79-25.88-54.14-65.32-54.14H177.9v217ZM212.41,175h45.91c25,0,39.13,11.13,39.13,31.28,0,21.5-16.48,33.53-46.37,33.53H212.41Zm0,162V265.51H258c32.66,0,49.61,12,49.61,35.49s-16.48,35.94-47.6,35.94Z"/></svg>