<svg id="svg3476" xmlns="http://www.w3.org/2000/svg" viewBox="0 0 415 415"><defs><style>.cls-1{fill:#264de4;}.cls-2{fill:#2965f1;}.cls-3{fill:#ebebeb;}.cls-4{fill:#fff;}</style></defs><g id="layer1"><g id="g3013"><polygon id="polygon2989" class="cls-1" points="352.6 83.2 326.15 379.36 207.32 412.3 88.81 379.4 62.41 83.2 352.6 83.2"/><polygon id="polygon2991" class="cls-2" points="303.52 360.5 326.12 107.42 207.5 107.42 207.5 387.12 303.52 360.5"/><polygon id="polygon2993" class="cls-3" points="122.94 217.27 126.2 253.6 207.5 253.6 207.5 217.27 122.94 217.27"/><polygon id="polygon2995" class="cls-3" points="207.5 143.74 207.38 143.74 116.41 143.74 119.7 180.07 207.5 180.07 207.5 143.74"/><polygon id="polygon2997" class="cls-3" points="207.5 349.42 207.5 311.62 207.34 311.66 166.88 300.74 164.29 271.77 144.63 271.77 127.83 271.77 132.91 328.81 207.34 349.47 207.5 349.42"/><path id="path2999" class="cls-4" d="M130.69,2.7h44V21.1H149.1V39.5h25.59V57.9h-44Z"/><path id="path3001" class="cls-4" d="M183.49,2.7h44v16h-25.6v3.2h25.6V58.7h-44V41.9H209.1V38.7H183.5Z"/><path id="path3003" class="cls-4" d="M236.29,2.7h44v16h-25.6v3.2h25.6V58.7h-44V41.9H261.9V38.7H236.29Z"/><polygon id="polygon3005" class="cls-4" points="252.1 253.6 247.9 300.72 207.38 311.65 207.38 349.45 281.85 328.81 282.39 322.67 290.94 227.03 291.81 217.27 298.38 143.74 207.38 143.74 207.38 180.07 258.56 180.07 255.25 217.27 207.38 217.27 207.38 253.6 252.1 253.6"/></g></g></svg>